<svg xmlns="http://www.w3.org/2000/svg" viewBox="0 0 870 870"><defs><style>.cls-1{fill:#f9b707;}.cls-2{fill:none;}</style></defs><g id="Layer_2" data-name="Layer 2"><g id="Layer_1-2" data-name="Layer 1"><path class="cls-1" d="M81.49,92.66c7.13,91.65,40.88,156.2,40.88,156.2l33.12-41.81c-12.22-21-17.71-59.18-17.71-59.18,161.51,12.78,228.79,200.66,228.79,200.66L420,356.1C318.47,93.5,81.49,92.66,81.49,92.66Z"/><path class="cls-1" d="M203.74,285.35s75.87,80.72,210.51,103.86v43.08s-160.31-9.78-229.72-99.87Z"/><path class="cls-1" d="M377.35,454.36l47-6.9S440.82,589.13,335,681L286.51,659.7S377.89,576.76,377.35,454.36Z"/><path class="cls-1" d="M355.91,496.58l5.81-44.46s-260.88,52.42-261.9,322c0,0,40.87,18.5,144.16-30.55l-48.44-38.15L140.7,726.64S157.87,553.25,355.91,496.58Z"/><path class="cls-1" d="M747.61,621.37l-33.12,41.75c12.22,21,17.7,59.19,17.7,59.19C570.64,709.58,503.43,521.7,503.43,521.7L450,514.13c101.52,262.6,338.5,263.44,338.5,263.44C781.39,685.92,747.61,621.37,747.61,621.37Z"/><path class="cls-1" d="M666.24,584.88S590.36,504.16,455.73,481V437.87s160.3,9.77,229.72,99.87Z"/><path class="cls-1" d="M492.63,415.86l-47,6.92S429.15,281.05,535,189.22l48.52,21.31S492.09,293.46,492.63,415.86Z"/><path class="cls-1" d="M626,126.64l48.44,38.11,54.84-21.17S712.13,317,514.07,373.65l-5.81,44.48s260.88-52.44,261.9-322C770.16,96.09,729.28,77.58,626,126.64Z"/><path class="cls-1" d="M589.81,738.36h0l0,0Z"/><path class="cls-1" d="M678,192.69a343,343,0,0,0-375.7-73.43Q288.64,125,275.65,131.9c14,7.65,26.84,15.33,37.38,27.45a301.3,301.3,0,0,1,345.55,72.53c9.08-10.37,18.14-20.77,26.06-32.31Q681.34,196.09,678,192.69Z"/><path class="cls-1" d="M156.77,550.14A300.08,300.08,0,0,1,133.92,435c0-90.69,40.23-172.16,103.76-227.51-13-7.37-27-11.54-38.62-20.39q-2.88,2.76-5.72,5.59a343,343,0,0,0-73.43,375.7q4.68,11.07,10.1,21.72a85.19,85.19,0,0,0,12.18-17.59C146.15,564.61,152.62,558,156.77,550.14Z"/><path class="cls-1" d="M553.11,712.93a300.13,300.13,0,0,1-117.46,23.8c-89.53,0-170.06-39.21-225.36-101.35-6.57,12.62-16.48,23-23.18,35.52q3.07,3.24,6.23,6.41A343,343,0,0,0,569,750.74q12.3-5.21,24.07-11.31C577.77,735,564.82,724.59,553.11,712.93Z"/><path class="cls-1" d="M751.39,301.61q-5.05-11.94-11-23.38c-6.76,14.3-18.31,26.22-26.37,40.49A300.09,300.09,0,0,1,737.38,435c0,90.77-40.3,172.31-103.94,227.67,13.68,4.06,24.79,16.72,38.58,20.43,2-1.91,4-3.83,5.94-5.79a343,343,0,0,0,73.43-375.7Z"/><rect class="cls-2" width="870" height="870"/></g></g></svg>